<mxfile host="app.diagrams.net" modified="2021-02-21T13:41:21.162Z" agent="5.0 (X11; Linux x86_64) AppleWebKit/537.36 (KHTML, like Gecko) Chrome/88.0.4324.150 Safari/537.36" etag="yQKm6KPTMdogugsNKrbc" version="14.4.2" type="github">
  <diagram name="Page-1" id="7e0a89b8-554c-2b80-1dc8-d5c74ca68de4">
    <mxGraphModel dx="1422" dy="801" grid="1" gridSize="10" guides="1" tooltips="1" connect="1" arrows="1" fold="1" page="1" pageScale="1" pageWidth="1100" pageHeight="850" background="#ffffff" math="0" shadow="0">
      <root>
        <mxCell id="0" />
        <mxCell id="1" parent="0" />
        <mxCell id="bH0KYs-LAL8MEOIja8ii-1" value="" style="rounded=0;whiteSpace=wrap;html=1;" parent="1" vertex="1">
          <mxGeometry x="160" y="220" width="650" height="170" as="geometry" />
        </mxCell>
        <mxCell id="bH0KYs-LAL8MEOIja8ii-3" value="" style="shape=image;html=1;verticalAlign=top;verticalLabelPosition=bottom;labelBackgroundColor=#ffffff;imageAspect=0;aspect=fixed;image=https://cdn2.iconfinder.com/data/icons/ios-7-icons/50/car_battery-128.png" parent="1" vertex="1">
          <mxGeometry x="40" y="319.1" width="28" height="28" as="geometry" />
        </mxCell>
        <mxCell id="bH0KYs-LAL8MEOIja8ii-4" value="CAN TRX&lt;br&gt;MCP2551" style="rounded=0;whiteSpace=wrap;html=1;fillColor=#647687;strokeColor=#314354;fontColor=#ffffff;" parent="1" vertex="1">
          <mxGeometry x="265" y="330" width="80" height="50" as="geometry" />
        </mxCell>
        <mxCell id="bH0KYs-LAL8MEOIja8ii-6" value="DCDC&lt;br&gt;5V-&amp;gt;3.3V" style="rounded=0;whiteSpace=wrap;html=1;fillColor=#f8cecc;strokeColor=#b85450;" parent="1" vertex="1">
          <mxGeometry x="370" y="277.5" width="80" height="40" as="geometry" />
        </mxCell>
        <mxCell id="bH0KYs-LAL8MEOIja8ii-7" value="DCDC&lt;br&gt;12V-&amp;gt;5V" style="rounded=0;whiteSpace=wrap;html=1;fillColor=#f8cecc;strokeColor=#b85450;" parent="1" vertex="1">
          <mxGeometry x="200" y="237.5" width="80" height="40" as="geometry" />
        </mxCell>
        <mxCell id="4uf-NZcExwnci9l9csMV-2" value="" style="shape=mxgraph.cisco.computers_and_peripherals.laptop;html=1;pointerEvents=1;dashed=0;fillColor=#036897;strokeColor=#ffffff;strokeWidth=2;verticalLabelPosition=bottom;verticalAlign=top;align=center;outlineConnect=0;" parent="1" vertex="1">
          <mxGeometry x="850" y="324.5" width="90" height="61" as="geometry" />
        </mxCell>
        <mxCell id="4uf-NZcExwnci9l9csMV-3" value="" style="aspect=fixed;pointerEvents=1;shadow=0;dashed=0;html=1;strokeColor=none;labelPosition=center;verticalLabelPosition=bottom;verticalAlign=top;align=center;fillColor=#00188D;shape=mxgraph.mscae.enterprise.usb" parent="1" vertex="1">
          <mxGeometry x="830" y="326.2" width="30" height="13.8" as="geometry" />
        </mxCell>
        <mxCell id="4uf-NZcExwnci9l9csMV-9" value="UART" style="shape=link;html=1;verticalAlign=bottom;fontSize=7;labelBackgroundColor=none;fillColor=#d5e8d4;strokeColor=#82b366;" parent="1" source="4uf-NZcExwnci9l9csMV-10" target="bH0KYs-LAL8MEOIja8ii-5" edge="1">
          <mxGeometry width="100" relative="1" as="geometry">
            <mxPoint x="560" y="349.5" as="sourcePoint" />
            <mxPoint x="630" y="350" as="targetPoint" />
          </mxGeometry>
        </mxCell>
        <mxCell id="4uf-NZcExwnci9l9csMV-10" value="ESP32" style="rounded=0;whiteSpace=wrap;html=1;fillColor=#647687;strokeColor=#314354;fontColor=#ffffff;" parent="1" vertex="1">
          <mxGeometry x="480" y="335" width="80" height="40" as="geometry" />
        </mxCell>
        <mxCell id="4uf-NZcExwnci9l9csMV-11" value="" style="line;strokeWidth=4;html=1;perimeter=backbonePerimeter;points=[];outlineConnect=0;fontSize=7;fillColor=#e1d5e7;strokeColor=#9673a6;" parent="1" vertex="1">
          <mxGeometry x="280" y="250" width="460" height="10" as="geometry" />
        </mxCell>
        <mxCell id="4uf-NZcExwnci9l9csMV-12" value="80mA" style="line;strokeWidth=4;html=1;perimeter=backbonePerimeter;points=[];outlineConnect=0;fontSize=7;fillColor=#d5e8d4;strokeColor=#82b366;labelPosition=center;verticalLabelPosition=top;align=left;verticalAlign=bottom;labelBackgroundColor=none;fontStyle=2" parent="1" vertex="1">
          <mxGeometry x="450" y="300" width="170" height="10" as="geometry" />
        </mxCell>
        <mxCell id="4uf-NZcExwnci9l9csMV-13" value="" style="line;strokeWidth=4;html=1;perimeter=backbonePerimeter;points=[];outlineConnect=0;fontSize=7;fillColor=#f8cecc;strokeColor=#b85450;" parent="1" vertex="1">
          <mxGeometry x="170" y="250" width="30" height="10" as="geometry" />
        </mxCell>
        <mxCell id="4uf-NZcExwnci9l9csMV-14" value="" style="pointerEvents=1;verticalLabelPosition=bottom;shadow=0;dashed=0;align=center;html=1;verticalAlign=top;shape=mxgraph.electrical.resistors.resistor_2;fontSize=7;direction=south;" parent="1" vertex="1">
          <mxGeometry x="610" y="310" width="10" height="30" as="geometry" />
        </mxCell>
        <mxCell id="4uf-NZcExwnci9l9csMV-16" value="CAN" style="shape=link;html=1;verticalAlign=bottom;fontSize=7;labelBackgroundColor=none;fillColor=#f8cecc;strokeColor=#b85450;exitX=0.712;exitY=0.496;exitDx=0;exitDy=0;exitPerimeter=0;" parent="1" source="bH0KYs-LAL8MEOIja8ii-2" edge="1">
          <mxGeometry width="100" relative="1" as="geometry">
            <mxPoint x="190" y="355" as="sourcePoint" />
            <mxPoint x="265" y="354.71" as="targetPoint" />
          </mxGeometry>
        </mxCell>
        <mxCell id="4uf-NZcExwnci9l9csMV-17" value="CAN" style="shape=link;html=1;verticalAlign=bottom;fontSize=7;labelBackgroundColor=none;fillColor=#d5e8d4;strokeColor=#82b366;" parent="1" source="bH0KYs-LAL8MEOIja8ii-4" target="4uf-NZcExwnci9l9csMV-10" edge="1">
          <mxGeometry width="100" relative="1" as="geometry">
            <mxPoint x="380" y="354.71000000000004" as="sourcePoint" />
            <mxPoint x="450" y="354.71000000000004" as="targetPoint" />
          </mxGeometry>
        </mxCell>
        <mxCell id="4uf-NZcExwnci9l9csMV-8" value="" style="pointerEvents=1;fillColor=strokeColor;verticalLabelPosition=bottom;shadow=0;dashed=0;align=center;html=1;verticalAlign=top;shape=mxgraph.electrical.diodes.schottky_diode;direction=west;strokeWidth=3;" parent="1" vertex="1">
          <mxGeometry x="598" y="245" width="32" height="20" as="geometry" />
        </mxCell>
        <mxCell id="4uf-NZcExwnci9l9csMV-19" value="" style="line;strokeWidth=4;html=1;perimeter=backbonePerimeter;points=[];outlineConnect=0;fontSize=7;fillColor=#e1d5e7;strokeColor=#9673a6;direction=south;" parent="1" vertex="1">
          <mxGeometry x="730" y="250" width="10" height="100" as="geometry" />
        </mxCell>
        <mxCell id="4uf-NZcExwnci9l9csMV-20" value="" style="line;strokeWidth=4;html=1;perimeter=backbonePerimeter;points=[];outlineConnect=0;fontSize=7;fillColor=#e1d5e7;strokeColor=#9673a6;direction=west;" parent="1" vertex="1">
          <mxGeometry x="730" y="340" width="140" height="10" as="geometry" />
        </mxCell>
        <mxCell id="4uf-NZcExwnci9l9csMV-21" value="USB" style="shape=link;html=1;verticalAlign=top;fontSize=7;labelBackgroundColor=none;exitX=1;exitY=0.5;exitDx=0;exitDy=0;entryX=0.28;entryY=0.5;entryDx=0;entryDy=0;entryPerimeter=0;" parent="1" source="bH0KYs-LAL8MEOIja8ii-5" target="4uf-NZcExwnci9l9csMV-2" edge="1">
          <mxGeometry width="100" relative="1" as="geometry">
            <mxPoint x="740" y="354.83" as="sourcePoint" />
            <mxPoint x="810" y="354.83" as="targetPoint" />
          </mxGeometry>
        </mxCell>
        <mxCell id="4uf-NZcExwnci9l9csMV-22" value="15mA" style="line;strokeWidth=4;html=1;perimeter=backbonePerimeter;points=[];outlineConnect=0;fontSize=7;fillColor=#e1d5e7;strokeColor=#9673a6;direction=south;labelPosition=right;verticalLabelPosition=middle;align=left;verticalAlign=middle;" parent="1" vertex="1">
          <mxGeometry x="670" y="255" width="10" height="85" as="geometry" />
        </mxCell>
        <mxCell id="bH0KYs-LAL8MEOIja8ii-5" value="FT232RL" style="rounded=0;whiteSpace=wrap;html=1;fillColor=#647687;strokeColor=#314354;fontColor=#ffffff;" parent="1" vertex="1">
          <mxGeometry x="630" y="335" width="80" height="40" as="geometry" />
        </mxCell>
        <mxCell id="4uf-NZcExwnci9l9csMV-56" value="&lt;span style=&quot;text-align: center; font-size: 6px;&quot;&gt;FT232RLは3.3V出力を持っているが50mA出力と非力である。&lt;/span&gt;&lt;br style=&quot;text-align: center; font-size: 6px;&quot;&gt;&lt;span style=&quot;text-align: center; font-size: 6px;&quot;&gt;このICを使うときはESP32も起動させる必要があり、&lt;/span&gt;&lt;br style=&quot;text-align: center; font-size: 6px;&quot;&gt;&lt;span style=&quot;text-align: center; font-size: 6px;&quot;&gt;50mAでは不足するため、DCDCからの3.3Vを使用する。&lt;/span&gt;" style="shape=note;size=15;align=left;spacingLeft=10;html=1;strokeWidth=1;fontSize=6;fillColor=#f5f5f5;strokeColor=#666666;fontColor=#333333;labelBackgroundColor=none;" parent="1" vertex="1">
          <mxGeometry x="410" y="410" width="340" height="60" as="geometry" />
        </mxCell>
        <mxCell id="4uf-NZcExwnci9l9csMV-57" value="" style="edgeStyle=none;endArrow=none;exitX=0.4;exitY=0;dashed=1;html=1;labelBackgroundColor=none;fontSize=7;" parent="1" source="4uf-NZcExwnci9l9csMV-56" target="4uf-NZcExwnci9l9csMV-10" edge="1">
          <mxGeometry x="1" relative="1" as="geometry">
            <mxPoint x="470" y="330" as="targetPoint" />
          </mxGeometry>
        </mxCell>
        <mxCell id="4uf-NZcExwnci9l9csMV-58" value="" style="edgeStyle=none;endArrow=none;exitX=0.8;exitY=0;dashed=1;html=1;labelBackgroundColor=none;fontSize=7;" parent="1" source="4uf-NZcExwnci9l9csMV-56" target="bH0KYs-LAL8MEOIja8ii-5" edge="1">
          <mxGeometry x="1" relative="1" as="geometry">
            <mxPoint x="630" y="330" as="targetPoint" />
          </mxGeometry>
        </mxCell>
        <mxCell id="4uf-NZcExwnci9l9csMV-59" value="80mA" style="line;strokeWidth=4;html=1;perimeter=backbonePerimeter;points=[];outlineConnect=0;fontSize=7;fillColor=#d5e8d4;strokeColor=#82b366;direction=south;verticalAlign=middle;align=left;labelPosition=right;verticalLabelPosition=middle;fontStyle=2" parent="1" vertex="1">
          <mxGeometry x="495" y="305" width="10" height="30" as="geometry" />
        </mxCell>
        <mxCell id="4uf-NZcExwnci9l9csMV-60" value="75mA" style="line;strokeWidth=4;html=1;perimeter=backbonePerimeter;points=[];outlineConnect=0;fontSize=7;fillColor=#e1d5e7;strokeColor=#9673a6;direction=south;labelPosition=right;verticalLabelPosition=middle;align=left;verticalAlign=bottom;" parent="1" vertex="1">
          <mxGeometry x="290" y="255" width="10" height="75" as="geometry" />
        </mxCell>
        <mxCell id="4uf-NZcExwnci9l9csMV-61" value="" style="line;strokeWidth=4;html=1;perimeter=backbonePerimeter;points=[];outlineConnect=0;fontSize=7;fillColor=#e1d5e7;strokeColor=#9673a6;direction=south;labelPosition=right;verticalLabelPosition=middle;align=left;verticalAlign=bottom;" parent="1" vertex="1">
          <mxGeometry x="320" y="255" width="10" height="55" as="geometry" />
        </mxCell>
        <mxCell id="4uf-NZcExwnci9l9csMV-62" value="66mA" style="line;strokeWidth=4;html=1;perimeter=backbonePerimeter;points=[];outlineConnect=0;fontSize=7;fillColor=#e1d5e7;strokeColor=#9673a6;direction=west;labelPosition=center;verticalLabelPosition=top;align=center;verticalAlign=bottom;" parent="1" vertex="1">
          <mxGeometry x="320" y="300" width="50" height="10" as="geometry" />
        </mxCell>
        <mxCell id="4uf-NZcExwnci9l9csMV-64" value="" style="pointerEvents=1;verticalLabelPosition=bottom;shadow=0;dashed=0;align=center;html=1;verticalAlign=top;shape=mxgraph.electrical.resistors.resistor_2;fontSize=7;direction=south;" parent="1" vertex="1">
          <mxGeometry x="460" y="310" width="10" height="30" as="geometry" />
        </mxCell>
        <mxCell id="4uf-NZcExwnci9l9csMV-65" value="" style="line;strokeWidth=4;html=1;perimeter=backbonePerimeter;points=[];outlineConnect=0;fontSize=7;fillColor=#f8cecc;strokeColor=#b85450;" parent="1" vertex="1">
          <mxGeometry x="60" y="317.5" width="120" height="10" as="geometry" />
        </mxCell>
        <mxCell id="4uf-NZcExwnci9l9csMV-67" value="" style="line;strokeWidth=4;html=1;perimeter=backbonePerimeter;points=[];outlineConnect=0;fontSize=7;fillColor=#f8cecc;strokeColor=#b85450;direction=south;" parent="1" vertex="1">
          <mxGeometry x="170" y="250" width="10" height="80" as="geometry" />
        </mxCell>
        <mxCell id="bH0KYs-LAL8MEOIja8ii-2" value="" style="shape=image;html=1;verticalAlign=top;verticalLabelPosition=bottom;labelBackgroundColor=#ffffff;imageAspect=0;aspect=fixed;image=https://cdn4.iconfinder.com/data/icons/transportation-190/1000/auto_commercial_car_computer_combi_compact_compact_car-128.png;" parent="1" vertex="1">
          <mxGeometry x="21" y="286" width="139" height="139" as="geometry" />
        </mxCell>
      </root>
    </mxGraphModel>
  </diagram>
</mxfile>
